<?xml version="1.0" standalone="no"?>
<!DOCTYPE svg PUBLIC "-//W3C//DTD SVG 20010904//EN"
 "http://www.w3.org/TR/2001/REC-SVG-20010904/DTD/svg10.dtd">
<svg version="1.0" xmlns="http://www.w3.org/2000/svg"
 width="512.000000pt" height="512.000000pt" viewBox="0 0 512.000000 512.000000"
 preserveAspectRatio="xMidYMid meet">
<metadata>
Created by potrace 1.14, written by Peter Selinger 2001-2017
</metadata>
<g transform="translate(0.000000,512.000000) scale(0.100000,-0.100000)"
fill="#000000" stroke="none">
<path d="M2380 5114 c-19 -2 -78 -9 -130 -15 -438 -50 -925 -256 -1277 -539
-114 -93 -293 -270 -390 -387 -300 -364 -498 -820 -564 -1303 -18 -125 -18
-497 -1 -620 64 -454 235 -869 506 -1229 95 -127 306 -344 436 -448 372 -300
811 -488 1290 -554 124 -17 496 -17 620 0 357 49 713 174 1010 355 312 191
611 480 821 796 157 235 305 589 362 865 42 203 52 298 51 530 0 283 -28 480
-105 730 -181 587 -576 1100 -1109 1439 -121 77 -384 201 -530 250 -150 51
-311 89 -464 112 -97 14 -454 27 -526 18z m445 -215 c327 -34 674 -150 955
-319 617 -371 1020 -990 1115 -1713 20 -155 20 -459 0 -614 -64 -488 -266
-926 -592 -1284 -43 -48 -92 -98 -108 -112 l-31 -25 -54 35 c-96 60 -258 138
-470 223 -351 140 -487 226 -553 349 -28 51 -28 52 -30 260 l-1 210 40 43 c69
76 150 253 178 388 11 56 17 67 42 79 73 34 115 104 140 235 21 105 10 170
-37 228 l-30 38 20 67 c79 273 102 598 55 783 -54 215 -189 356 -384 400 -41
10 -62 21 -82 45 -75 89 -203 135 -396 142 -372 15 -666 -106 -819 -335 -143
-216 -171 -570 -77 -989 l25 -113 -30 -37 c-62 -77 -63 -214 -4 -346 26 -57
81 -117 108 -117 19 0 22 -7 49 -112 38 -149 136 -339 197 -382 21 -14 21 -19
17 -228 -5 -234 -6 -241 -75 -325 -40 -50 -171 -140 -268 -183 -39 -17 -160
-68 -270 -112 -209 -84 -352 -152 -445 -211 l-54 -35 -26 19 c-14 11 -63 61
-108 112 -228 250 -387 520 -492 837 -87 263 -121 472 -121 760 0 288 34 497
121 760 273 821 968 1415 1827 1560 204 35 449 42 668 19z"/>
</g>
</svg>
